<svg version="1.1" id="Layer_1" xmlns="http://www.w3.org/2000/svg" xmlns:xlink="http://www.w3.org/1999/xlink" x="0px" y="0px"
	 viewBox="0 0 118.2 144.6" style="enable-background:new 0 0 118.2 144.6;" xml:space="preserve">
<style type="text/css">
	.st0{fill:#F9DEC7;}
	.st1{fill:#614735;}
	.st2{fill:#FFFFFF;}
	.st3{fill:#F9CBCB;}
	.st4{fill:#1A1A1A;}
	.st5{fill:#4D3222;}
	.st6{fill:#B29C8F;}
	.st7{fill:none;stroke:#402B1D;stroke-linecap:round;stroke-miterlimit:10;}
	.st8{fill:#402B1D;}
	.st9{fill:none;stroke:#402B1D;stroke-width:0.75;stroke-linecap:round;stroke-miterlimit:10;}
	.st10{fill:#BF5974;}
	.st11{fill:none;stroke:#BF5974;stroke-width:0.5;stroke-linecap:square;stroke-miterlimit:10;}
	.st12{fill:#513B2D;stroke:#513B2D;stroke-width:0.5;stroke-miterlimit:10;}
	svg * {transition: opacity .5s, fill .5s, stroke .5s;}
	svg:hover #toTransparent {opacity: 0;}
	svg:hover #fillToBlack .fillToBlack {fill: #1A1A1A}
	svg:hover #fillToBlack .strikeToBlack {stroke:#1A1A1A}
	svg:hover #strikeToBlack .strikeToBlack {stroke:#1A1A1A}
	 
</style>
<g id="toTransparent">
	<path id="skin" class="st0" d="M89.4,58.8C80,48.4,81.4,26.7,62.5,29c-1.7-0.4-6.5-2.4-7.3-1.9c-1.1,0.3-4,2.4-4.6,3.4
		c-0.3,0.2-18,8-15.4,13.4c-1.7,2.3,0.3,12.6,0,16c-0.6,6.7,1,12.9,3,19.4c3.6,11.2,12.8,16.4,17.4,26.1c4.7,9.7,7.3,19.1,19.4,10.7
		c5.9-4.1,11.4-15.8,6.4-23.3C84.1,87.9,92.9,62.7,89.4,58.8z"/>
	<g id="hairBackground">
		<path class="st1" d="M86.4,69c0.1,1.9-2,11.9-2.7,14.4c-0.1,0.3-0.9,2.3-0.9,2.6c-0.9,3.3-2.2,4.9-2.2,8.9c0,4.2,0.9,8.3-0.1,12.5
			c0,0.1,0,0.1,0,0.1c-0.1,0.3,0,0.6,0.3,0.9c1.1,0.9,7,4.6,8.1,4.5c0.2,0,0.7-0.1,1.1-0.2c0.2,0,0.4,0,0.6,0
			c4.1,0.7,6.6,2.1,7.5,6.8c0.2,1.2,1.9,0.8,2-0.3c0.1-1,0-1.9-0.2-2.8c0.3-0.4,0.3-1.9,0.2-2.2c-0.2-0.5-0.4-1-0.6-1.6
			c-0.5-1.4,0.8-2.8,2.2-2.5c1.5,0.3,3,0.5,4.5,0.6c0.5,0,0.9-0.4,1-0.8c-0.2-0.4-2.1-1.4-2.5-1.9c-0.1-0.2-0.1-0.4-0.1-0.6
			c0,0-0.1,0-0.1-0.1h0.1c0.2-0.3,0.5-0.4,0.7-0.1c0.1,0.1,1.3,0.7,1.4,0.8c0.6,0.7,1.7,0.1,1.7-0.7c0-0.1-0.1-1.2,0-1.2
			c0-0.2,0.2-0.5,0.5-0.5c0.2,0,1.8,0.6,2.4,0.8c0.1,0,0.2,0.1,0.3,0.1c0.8,0.2,1.6,0.3,2.4,0.2c1.5-0.1,3.2-0.5,4.1-1.8
			c0.3-0.5,0.1-1.1-0.4-1.4c-1.1-0.7-2.7-0.8-4-1.2c-2.1-0.7-6.6-3.8-8-4.9c-0.2-0.2-0.4-0.4-0.5-0.7c-0.2-0.5-0.6-0.9-1-1.3
			c-0.1-0.1-0.3-0.2-0.4-0.4c-1.6-2.2-3.6-6.5-4-7.3c-0.1-0.1-0.1-0.2-0.1-0.4c-0.7-2.9-3.2-25.1-3.4-27.4c0-0.1,0-0.3,0-0.4
			c0.1-0.9,3.4-15.5,3.3-19.9c0-0.9-1.8-5-3-6.3c-0.2-0.2-0.4-0.4-0.6-0.5c-0.2-0.4-1.6-2-2.4-2.6c-0.2-0.1-0.3-0.3-0.4-0.5
			c-0.7-1.3-2.3-4.9-2.6-5.7c-1.1-2.8-2.6-5.5-3.6-8.4c-0.8-2.4-1.6-5-3.3-6.9c-3.3-3.8-9.7-3.8-13.9-1.5C65.3,9.6,62,16.4,59,20.5
			c-0.1,0.2-0.2,0.3-0.3,0.5c-2.1,2.3-1.2,6.9,2.8,6.7c7.2-0.3,16.7,1.8,18,10.2c0.5,3.1,1.6,5.7,2.7,8.6c0.9,2.3,1.5,4.8,2.7,7
			c0.1,0.1,1.2,3.4,1.3,3.4c0,0.5,1,0.8,1.7,1c0.4,0.1,0.8,0.3,1,0.6c1.8,2.3,2.1,4.9,0.7,7.3"/>
		<path class="st1" d="M36.7,39c6.3-5,15.7-7.7,19.9-14.9c0.2-0.3,0.4-0.5,0.6-0.8c20.6-17.8-1.3-29.4-19.7-20
			c-16.3,8.3-32.4,39-24.1,55.9c0.1,0.2,0.1,0.3,0.1,0.5c0.5,6.8,0.2,13.7-0.9,20.4c0,0.2-0.1,0.3-0.1,0.5C11.6,82.7,4.2,99,1.8,99
			c2.8-0.3,5.4-1.1,7.9-2.3c1.2-0.6,2.5,0.6,2,1.8l-1.8,4.8c-0.1,2.4,6.4-2.3,9.5-4.7c0.8-0.6,2-0.2,2.3,0.7c0.9,3,2.6,8.3,4.3,6.8
			c0.4,0.2,0.5,0.4,0.6,0.8c13.8,6.8,3,24.5,5.4,30c0.3,0.7,2.9-0.4,3.2-0.6c4.4-3.1,2.6,2.4,6.1,7.2c1.3,1.8,5.2-5.3,6.8-7.7
			c0.2-0.4,0.6-0.6,1.1-0.6c2.7-0.3,5.9,1.2,7.4,1.5c0.2,0,0.3,0,0.5,0c0.8-0.1,3.2-0.5,4.5-1.2c1.1-0.5,0.4-2.6-0.7-3.1
			c-3.1-1.5-4.2-8.6-1.2-14.3c0.1-0.2,0.9-1.4-0.1-2.8c-0.2-0.3-2.8-8.7-3.1-9.5c0-0.1,0-0.1,0-0.2c-1.6-7.8-4.8-6.9-7.9-10.3
			c-8.1-8.9-11.1-17.6-14.5-29.4c0-0.2-0.1-0.3-0.1-0.5c0-0.8,0-3.4,0.2-3.8c4.2-7.2-2.9-15.4,2.1-22.1C36.4,39.2,36.6,39.1,36.7,39
			z"/>
	</g>
	<g id="eyesBackground">
		<path id="leftEyeBackground" class="st2" d="M70.3,57.7c-2.6,0.5-4.7,2.2-5.4,4.8c-0.2,0.6,0.7,0.9,0.9,0.3c1.7,0,3.5,0.2,5.2,0
			c0.2,0,0.5,0,0.8-0.1c0.1,0,0.3,0,0.4-0.1c1.4-0.4,2.9-1.7,4-2.6c0.2-0.2,0.3-0.3,0.2-0.6C76.1,57.5,71.6,57.4,70.3,57.7z"/>
		<path id="rightEyeBackground" class="st2" d="M48.4,63.7c-0.1,0-0.1-0.1-0.2-0.1c-0.1-0.1-0.2-0.1-0.4-0.2l0,0
			c-0.1-0.1-0.2-0.1-0.3-0.2c-1.1-0.6-2.4-0.9-3.6-0.7c-1.2,0.2-4.2,1.7-4.4,3.2c-0.2,0.2-0.2,0.5,0,0.7c0,0.2,0.1,0.5,0.3,0.6
			c1.6,0.6,2.6,1.1,4.4,0.8c1.9-0.3,4.1-1,5.9-1.5c0.2-0.1,0.4-0.3,0.4-0.5C50.6,64.8,49.2,64.2,48.4,63.7z"/>
	</g>
	<path id="teeth" class="st2" d="M72.4,85.3c-2.5,1-4.7,2-7.3,2.7c-1.9,0.5-3.8,1.1-5.8,1.1c-2.1,0-4.3-0.7-6.4-1
		c-1.3-0.2-1.5,1.1-0.5,1.9c0,0,0,0,0.1,0c0,0.1,0,0.3,0.1,0.4c10.6,6.8,16.6,2.2,20.8-3.9C73.9,85.8,73.2,85,72.4,85.3z"/>
	<g id="cheeks">
		<path id="leftCheek" class="st3" d="M81,71.3c1.5,2.4-5.1,5.7-7,3.9c-2.1-1.9-5.3-1-5.3-3.8s2.3-5.1,5.1-5.1S79.2,68.5,81,71.3z"
			/>
		<path id="rightCheek" class="st3" d="M39.4,78.2c-0.9,2.5,6,4.1,7.4,2.1c1.5-2.2,4.7-2.1,4.1-4.7c-0.6-2.6-3.2-4.2-5.8-3.6
			S40.4,75.2,39.4,78.2z"/>
	</g>
</g>
<g id="eyes">
	<path id="rightEye" class="st4" d="M43.4,63.4c-0.4,0.3-0.6,0.8-0.6,1.3c0,0.7,0,2.3,1.3,2.6c1.1,0.3,2,0,3.1-0.5
		c0.5-0.2,0.8-0.9,0.8-1.5v-0.1c0-0.8-0.4-1.5-1.1-1.8C45.8,62.9,44.4,62.5,43.4,63.4z"/>
	<path id="leftEye" class="st4" d="M68,58.7c-0.2,0.2-0.3,0.5-0.3,0.8c-0.1,0.7-0.2,2.4,1.2,2.9c1.2,0.4,2.3,0.1,3.1-0.5
		c0.5-0.3,0.8-0.9,0.8-1.5V60c0-0.6-0.3-1.5-0.8-1.8C70.9,57.7,69.1,57.5,68,58.7z"/>
	<g id="leftEyeLine">
		<path class="st4" d="M65.5,62.8c-0.3,0.1-0.6-0.1-0.7-0.4c-0.1-0.1-0.1-0.3,0-0.5l0.2-0.4c0.2-0.6,0.4-1.1,0.8-1.6
			c0.7-0.9,1.6-1.8,2.8-2.3c1.2-0.5,2.4-0.5,3.6-0.4s2.3,0.4,3.4,0.9c0.3,0.1,0.5,0.2,0.8,0.4l0.2,0.1c0.1,0.1,0.2,0.2,0.3,0.3
			c0.1,0.1,0.1,0.3,0,0.5c0,0.1-0.2,0.3-0.2,0.3c-0.4,0.5-0.8,0.9-1.2,1.3c-0.9,0.8-1.8,1.6-3,2c-1.3,0.3-2.4,0.1-3.6,0
			C67.8,62.8,66.7,62.5,65.5,62.8z M65.5,62.8c1.1-0.3,2.3-0.5,3.5-0.5c1.1,0.1,2.3,0.2,3.3,0c1-0.3,1.9-1,2.7-1.8
			c0.4-0.4,0.8-0.8,1.2-1.2c0.1-0.1,0,0,0,0l0,0l0,0L76,59.2c-0.2-0.1-0.5-0.2-0.8-0.3c-1-0.4-2.1-0.7-3.2-0.8s-2.3-0.1-3.2,0.3
			c-1,0.4-1.8,1.2-2.5,2.1c-0.4,0.4-0.8,0.8-1.1,1.3c-0.2,0.2-0.4,0.4-0.3,0.7C64.9,62.7,65.3,62.9,65.5,62.8z"/>
	</g>
	<g id="rightEyeLine">
		<g>
			<path class="st4" d="M50.4,65.9c0.3-0.1,0.4-0.5,0.1-0.7c-0.3-0.2-0.5-0.3-0.8-0.4c-0.5-0.3-1.1-0.5-1.6-0.7
				c-1-0.5-2.2-0.9-3.3-0.9s-2.3,0.3-3.2,1c-0.9,0.7-1.7,1.6-2.3,2.5v0.1c0.2-0.2,0-0.4,0.1-0.4l0,0l0.1,0.1
				c0.1,0.1,0.2,0.1,0.3,0.2c0.2,0.1,0.4,0.2,0.6,0.3c0.4,0.2,0.9,0.4,1.4,0.5s0.9,0.2,1.4,0.2c0.4,0,0.9-0.1,1.4-0.3
				c1-0.2,1.9-0.6,2.9-0.8C48.4,66.3,49.5,66.2,50.4,65.9z M50.4,65.9c-1,0.3-1.9,0.9-2.8,1.3c-0.9,0.4-1.9,0.6-2.9,0.9
				c-0.5,0.1-1,0.3-1.6,0.3s-1.1-0.1-1.6-0.3c-0.5-0.1-1-0.3-1.5-0.5c-0.2-0.1-0.5-0.2-0.7-0.4c-0.1-0.1-0.2-0.1-0.4-0.2
				c-0.1,0-0.1-0.1-0.2-0.2l-0.1-0.1c0,0-0.2-0.3,0-0.6v0.1c0.7-1,1.5-2,2.6-2.7s2.3-1.1,3.6-1.1s2.5,0.4,3.6,1
				c0.6,0.3,1,0.7,1.5,1.1c0.2,0.2,0.4,0.4,0.7,0.7C50.9,65.4,50.7,65.8,50.4,65.9z"/>
		</g>
	</g>
</g>
<g id="strikeToBlack">
	<g id="Nose">
		<g>
			<path class="fillToBlack st5" d="M52.1,60.7c3,2.3,4.7,6.1,4.6,10c0,1.9-0.2,3.7-0.3,5.6c-0.1,1.8-0.3,3.7-0.2,5.5c0,0.4,0.1,0.9,0.2,1.3
				c0.1,0.2,0.2,0.4,0.2,0.6c0.1,0.2,0.2,0.4,0.4,0.5c0.5,0.7,1.2,1.2,2,1.4c0.4,0.1,0.8,0.1,1.3,0c0.4,0,0.7-0.2,1.1-0.4
				c0.3-0.3,0.6-0.6,0.9-0.9c0.3-0.4,0.5-0.7,1-1.1c0.1-0.1,0.2-0.2,0.4-0.2c0.1,0,0.2,0,0.3,0s0.1,0,0.2,0l0,0c0.1,0,0.3,0,0.5-0.1
				c0.4-0.1,0.8-0.3,1.2-0.5c0.4-0.2,0.8-0.5,1.2-0.7c0.2-0.1,0.4-0.3,0.5-0.4s0.3-0.3,0.4-0.5c0.4-0.8,0.6-1.7,0.4-2.6
				s-0.7-1.6-1.5-2.2c0,0,0,0,0-0.1c0,0,0,0,0.1,0c0.8,0.5,1.5,1.2,1.7,2.2c0.3,0.9,0.2,2-0.2,2.9c-0.1,0.2-0.2,0.5-0.4,0.7
				c-0.2,0.2-0.4,0.3-0.6,0.5c-0.4,0.3-0.8,0.6-1.2,0.8c-0.4,0.3-0.8,0.5-1.3,0.6c-0.2,0.1-0.5,0.2-0.9,0.1H64l0,0l0,0
				c0,0-0.1,0-0.2,0.1c-0.6,0.6-1.1,1.5-1.9,2.1c-0.4,0.3-1,0.6-1.5,0.6s-1,0-1.5-0.1c-1-0.2-1.9-0.9-2.5-1.7
				c-0.1-0.2-0.3-0.4-0.4-0.6c-0.1-0.2-0.2-0.5-0.3-0.7c-0.2-0.5-0.2-1-0.3-1.5c-0.1-1.9,0.1-3.8,0.2-5.6c0.1-1.9,0.2-3.7,0.2-5.6
				C56.1,67.1,54.7,63.4,52.1,60.7C52.1,60.8,52.1,60.7,52.1,60.7L52.1,60.7z"/>
		</g>
		<g>
			<path class="fillToBlack st5" d="M53.6,76.9c-0.1,0.8-0.2,1.6-0.3,2.4s-0.4,1.5-0.4,2.3c0,0.4,0.1,0.6,0.4,0.8c0.3,0.2,0.6,0.4,1,0.6
				c0.7,0.3,1.5,0.6,2.2,0.7c0.1,0,0.1,0.1,0.1,0.1c0,0.1-0.1,0.1-0.2,0.1c-0.8-0.2-1.6-0.3-2.3-0.6c-0.4-0.1-0.8-0.3-1.1-0.5
				c-0.2-0.1-0.4-0.3-0.5-0.5s-0.2-0.5-0.2-0.7c-0.1-0.9,0-1.7,0.2-2.5C52.7,78.4,53,77.6,53.6,76.9C53.5,76.9,53.5,76.9,53.6,76.9
				L53.6,76.9z"/>
		</g>
	</g>
	<g id="Wrinkles">
		<g id="Right_wrinkle">
			<path class="fillToBlack st6" d="M50.4,82c0.1,0.6,0,1.2-0.2,1.7s-0.5,1-0.9,1.5c-0.3,0.5-0.7,0.9-1.2,1.3c-0.5,0.3-1,0.6-1.6,0.8l0,0l0,0
				c0.2-0.3,0.4-0.5,0.5-0.7c0.2-0.2,0.4-0.4,0.6-0.6c0.4-0.4,0.8-0.7,1.2-1.1s0.7-0.8,1-1.3C50.1,83.1,50.3,82.6,50.4,82L50.4,82
				L50.4,82L50.4,82z"/>
		</g>
		<g id="Left_wrinkle">
			<path class="fillToBlack st6" d="M70,78.8c1.1,0.8,2.2,1.6,3.4,2.2c0.6,0.3,1.2,0.6,1.8,0.9c0.6,0.3,1.2,0.6,1.8,0.8l0,0l0,0
				c-0.7,0.2-1.4,0-2.1-0.2s-1.3-0.7-1.8-1.1C71.9,80.8,70.9,79.9,70,78.8C69.9,78.9,69.9,78.8,70,78.8L70,78.8z"/>
		</g>
	</g>
	<g id="Hair">
		<g id="Right_Hair">
			<path class="fillToBlack st7" d="M58.4,21.5c0,0,13.4-10.9,8.2-15.8s-23.1-9.9-38.1,7.2c0,0-11,11.7-13.7,25c-2.7,13.1,0.7,27.7-0.6,35.3
				c-1.3,7-6.7,22.1-13.4,24.7c-0.3,0.1-0.3,0.6,0.1,0.7c3.5,0.6,8.8,0.2,14-6.5c0.1-0.1,0.3,0,0.2,0.1L9.9,103
				c-0.1,0.3,0.2,0.6,0.5,0.5l4.8-2.1c0.1,0,0.2-0.1,0.2-0.1C29.3,93.8,24.5,73,24.5,73l0,0c-3-10.3-3.5-25.4-3.5-25.5l0,0
				c3.3-40.6,33.8-30,36.2-29.1c0.1,0,0.2,0.1,0.3,0.1c2,1.6,0.5,5.1,0.2,5.6c0,0,0,0.1-0.1,0.1c-1,0.7-14.2,9.8-20.9,10.6
				c-0.1,0-0.2,0.1-0.2,0.1c-0.5,0.7-3.6,5-3.6,7.9c0,3.2,2.8,14.7,1.4,17.6"/>
			<path class="fillToBlack st7" d="M22.8,93.6c0,0-3,9.8,2.5,12.4s10.2,4.8,10.6,11.3c0.4,6-3.4,17.6-3.8,19.5c0,0.1,0.1,0.2,0.2,0.2
				c4.6-0.5,8.1-7.1,10.1-12.8c1.9-5.5-0.9-15.5-3.4-19.3c-2.7-4-7.1-3.6-8.4-9.9c-1.2-6.3,5.5-21,5.5-21"/>
			<g>
				<path class="fillToBlack st8" d="M39.3,26.6c-3.3,0.5-6.5,1.9-8.9,4.2c-0.3,0.3-0.6,0.6-0.8,0.9l-0.7,1c-0.4,0.7-0.8,1.4-1,2.2
					c-0.3,0.8-0.3,1.6-0.5,2.4c0,0.8-0.1,1.6,0,2.5c0.2,3.3,1,6.6,1.8,9.8c0.4,1.6,0.9,3.2,1.2,4.9c0.1,0.9,0.2,1.7,0,2.6
					c-0.2,0.9-0.8,1.6-1.5,2.1h-0.1c0,0,0,0,0-0.1c0.6-0.6,1-1.3,1.1-2.1s-0.1-1.6-0.2-2.4c-0.4-1.6-0.9-3.2-1.4-4.8
					c-1-3.2-1.5-6.6-1.7-10c-0.1-0.8,0-1.7,0.1-2.6c0.2-0.8,0.2-1.7,0.6-2.5c0.2-0.8,0.7-1.6,1.1-2.3l0.8-1c0.3-0.3,0.6-0.6,0.9-0.9
					c1.3-1.2,2.7-2.1,4.3-2.7C35.9,27.1,37.6,26.6,39.3,26.6C39.3,26.5,39.3,26.5,39.3,26.6L39.3,26.6L39.3,26.6z"/>
			</g>
			<g>
				<path class="fillToBlack st8" d="M65.1,13.8c-0.8-0.5-1.7-1-2.7-1.3c-0.9-0.4-1.8-0.7-2.8-0.9c-0.9-0.2-1.9-0.3-2.8-0.3
					c-0.9,0-1.9,0-2.9,0.2h-0.1c0,0,0,0,0-0.1c0.8-0.7,1.8-1,2.9-1.1c1.1-0.1,2.1,0.3,3.1,0.6C61.8,11.4,63.6,12.5,65.1,13.8
					C65.1,13.7,65.2,13.8,65.1,13.8L65.1,13.8z"/>
			</g>
			<g>
				<path class="fillToBlack st8" d="M67.1,10.4c-1-1.1-2.2-2.1-3.5-2.9c-1.3-0.8-2.7-1.4-4.2-1.7s-3-0.4-4.4-0.3c-0.7,0-1.5,0.1-2.2,0.2
					c-0.4,0-0.7,0.1-1.1,0.2C51.3,6,50.9,6,50.6,6.1l0,0h-0.1c0,0,0,0,0-0.1c1.4-0.8,2.9-1.4,4.5-1.5c1.6-0.2,3.2,0.1,4.7,0.5
					C62.6,5.9,65.3,7.9,67.1,10.4C67.2,10.4,67.2,10.4,67.1,10.4L67.1,10.4z"/>
			</g>
			<g>
				<path class="fillToBlack st8" d="M43,95.8c2.2,2,4.2,4.2,6,6.6c0.9,1.2,1.7,2.5,2.4,3.8c0.7,1.4,1.2,2.8,1.2,4.4c0,0.8-0.1,1.6-0.4,2.3
					l-0.9,2.1c-0.6,1.4-1.2,2.7-1.7,4.1c-0.6,1.3-1.1,2.7-1.2,4.2c-0.2,1.4,0.2,2.9,1.3,3.9v0.1c0,0,0,0-0.1,0
					c-0.6-0.5-1.1-1-1.4-1.8c-0.3-0.7-0.5-1.5-0.4-2.3c0-1.6,0.5-3,1-4.5c0.5-1.4,1.1-2.8,1.8-4.1l0.9-2c0.3-0.6,0.4-1.3,0.5-2
					c0-1.4-0.4-2.8-1-4.1c-0.6-1.3-1.4-2.6-2.2-3.8C47,100.2,45.1,98,43,95.8L43,95.8L43,95.8z"/>
			</g>
			<path class="fillToBlack st7" d="M60,116.6c-2.6,5.7-4,14.9,3.1,17.9c-2.3,1.5-6.1,2.5-8.8,1.9c-1.9-0.4-2.9-2.3-5.1-2.1
				c-4,0.5-5.4,6.3-6.3,9.5c-0.6-0.2-1.2-0.5-1.6-1l-1-0.9c-2.4-2.6-3.3-6.5-1.7-9.7"/>
		</g>
		<g id="Left_Hair">
			<g>
				<path class="fillToBlack st8" d="M69.4,27.8c1.6-0.3,3.4-0.3,4.9,0.5c0.8,0.4,1.4,1.1,1.8,1.8l1.3,2.1c1.7,2.8,3.3,5.7,4.6,8.7
					c1.4,3,2.6,6.1,3.4,9.3s1.4,6.5,1.6,9.8v0.1c0,0,0,0-0.1,0c-0.8-3.2-1.5-6.4-2.5-9.5c-0.9-3.1-1.9-6.2-3.1-9.3
					c-1.2-3-2.7-6-4.3-8.8l-1.2-2.1c-0.4-0.7-0.9-1.3-1.6-1.7C72.8,27.8,71.1,27.7,69.4,27.8C69.4,28,69.4,27.9,69.4,27.8
					C69.4,27.9,69.4,27.9,69.4,27.8z"/>
			</g>
			<path class="fillToBlack st9" d="M68.3,7.9c0,0,10.5-7.5,17.1,4.1c0,0,3.8,7,4,10.4c0.1,2.7,5.7,9.6,7.7,11.3c4,3.4,1.6,18.1-0.1,19.5"/>
			<path class="fillToBlack st9" d="M81.1,108.2c0,0,5.4,6.4,9.9,4.3c3.5-1.6,6.5,4.2,7.7,7c0.2,0.5,0.9,0.4,1.1-0.1c0.8-2.7,1.3-9.1-7.2-15.2
				C81.4,96,86,74.4,86,74.4"/>
			<path class="fillToBlack st9" d="M101.5,104.7c1,1.2,4.2,2.7,5.6,3.4c0.5,0.3,1.1-0.1,1.1-0.6V106c0-0.4,0.4-0.6,0.7-0.3
				c3.6,2.7,7.3,0.2,8.8-1.2c0.3-0.3,0.1-0.8-0.3-0.9c-2.2-0.2-7.5-1.4-13.2-7.3c-7.5-7.7-8-37.5-8-37.8l0,0
				c3.9-22.9-10.4-31.8-11.6-32.9c-1.2-1-1.8-7.1-8.8-10.8c-6.2-3.3-15.9,6.8-17.8,8.9c-0.1,0.1,0,0.2,0.1,0.1
				c2.2-1.3,12.6-7.1,17-2.4c4.9,5.2,7,7.9,8.7,12.8s10.5,18.3,9.6,24.7S88.5,79,92.8,85.4c3.4,5,4.1,11.1,4.3,13.7
				c0.1,0.8,0.4,1.5,0.9,2.1l4,4.1l5,5.1c0.1,0.1,0,0.4-0.2,0.4c-2-0.2-8-0.4-12.1-4.7"/>
		</g>
	</g>
	<g id="Face_Edge">
		<g id="Neck">
			<path class="fillToBlack st8" d="M55.5,102l2.1,7.1l1.1,3.5l0.5,1.8c0.2,0.5,0.5,1,1,1.3l3.1,1.9l1.6,0.9l0.8,0.5c0.2,0.1,0.5,0.2,0.8,0.3
				c0.5,0.1,1.1,0,1.5-0.3s0.9-0.8,1.4-1.1l2.8-2.4l5.5-4.9l2.8-2.4l0.3-0.3c0.1-0.1,0.2-0.2,0.3-0.3c0.2-0.2,0.3-0.4,0.4-0.6
				c0.2-0.5,0.4-1,0.3-1.5c-0.4-4.9-0.8-9.8-1-14.7h0.1c0.8,4.9,1.3,9.7,1.9,14.6c0,0.7-0.1,1.4-0.4,2c-0.2,0.3-0.4,0.6-0.6,0.9
				c-0.1,0.1-0.2,0.3-0.4,0.4l-0.3,0.3l-2.8,2.4l-5.6,4.8l-2.8,2.4l-0.7,0.6c-0.2,0.2-0.5,0.4-0.8,0.6c-0.6,0.3-1.3,0.5-2,0.3
				c-0.3-0.1-0.7-0.2-1-0.4l-0.8-0.5l-1.6-1c-1-0.7-2.1-1.3-3.1-2c-0.5-0.4-0.9-1-1.1-1.6l-0.5-1.8l-1-3.6L55.5,102L55.5,102z"/>
		</g>
		<path id="Chin" class="fillToBlack st9" d="M34.4,60.5c-1.4,3,3.5,25.6,12,32.3l0,0c0.3,0.5,5.8,5.8,7.5,7.5c0.3,0.3,5.5,7.4,11.6,6.4
			c7.3-1.2,11-7.8,11-7.8s2.4-3.7,4.8-9.1c2.6-5.8,5.2-13.5,5-20.7c0-0.1,0.1-0.3,0.2-0.3c0.8-0.4,3.7-2,3.9-5.4"/>
	</g>
</g>
<g id="fillToBlack_and_strikeToBlack">
	<g id="lips">
		<path class="strikeToBlack st10" d="M73.8,86.1c0,0-4.5,5.5-6.8,6.4c0,0-8.8,3.8-15.7-4c0,0,1.7,3.3,3.9,5.5c1.9,1.9,4.9,3.4,7.9,3.1
			c6.1-0.5,9.5-8.2,9.5-8.2"/>
		<path class="strikeToBlack st10" d="M51.5,88c0,0,2.4,0.9,5.2,1.4c2,0.4,4.2,0.5,5.7,0.3c3.6-0.5,10.9-4.6,10.9-4.6s-1.5,0-3.6,0.4
			c-3,0.5-6.8,1.8-8.1,2.7c0,0-1.6-0.8-3.7-0.7C54.9,87.6,51.5,87.7,51.5,88z"/>
		<path class="strikeToBlack st11" d="M52,88.2c-0.4-0.2-0.7,0.1-0.3,0.4c0.1,0.1,0.1,0.1,0.1,0.2c2.1,2.3,6.6,6.8,11,5.5
			c5.3-1.6,8.3-3.7,10.8-8.3c0.2-0.4-0.2-0.9-0.6-0.6c-2,1.1-5.9,3.5-10.4,4.3C59.1,90.2,55.5,89.7,52,88.2z"/>
	</g>
	<g id="eyebrows">
		<path id="leftEyebrow" class="fillToBlack strikeToBlack st12" d="M65.6,57.1c2.1-0.2,5.5-1.1,8.3-1.9l4.7-1.3c0.3-0.1,0.3-0.4,0.1-0.6
			c-0.7-0.5-2.2-1.4-4-1.4c-0.3,0-0.5,0.1-0.8,0.2c-1.3,0.7-6,3-8.4,4.3C65.1,56.6,65.2,57.2,65.6,57.1z"/>
		<path id="rightEyebrow" class="fillToBlack strikeToBlack st12" d="M47,60.9C47.1,60.9,47.1,61,47,60.9c-1.4,0.3-6.7,0.8-7.9,1.1c-0.7,0.2-3.1,1-3.8,1.2
			c0,0-0.1,0,0-0.1l0.4-1.2c0.1-0.2,0.2-0.4,0.3-0.6l0.5-0.7c0.1-0.2,0.6-0.3,0.9-0.3L47,60.9z"/>
	</g>
</g>
</svg>
